<svg version="1.1" viewBox="0.0 0.0 396.1942257217848 344.9238845144357" fill="none" stroke="none" stroke-linecap="square" stroke-miterlimit="10" xmlns:xlink="http://www.w3.org/1999/xlink" xmlns="http://www.w3.org/2000/svg"><clipPath id="p.0"><path d="m0 0l396.1942 0l0 344.9239l-396.1942 0l0 -344.9239z" clip-rule="nonzero"/></clipPath><g clip-path="url(#p.0)"><path fill="#000000" fill-opacity="0.0" d="m0 0l396.1942 0l0 344.9239l-396.1942 0z" fill-rule="evenodd"/><path fill="#ffffff" d="m-2.624672E-7 57.78068l0 0c0 -31.911388 25.869293 -57.78068 57.78068 -57.78068l278.73785 0c15.324402 0 30.021149 6.08759 40.857117 16.92357c10.835968 10.835979 16.923584 25.532724 16.923584 40.85711l0 231.1158c0 31.911377 -25.869293 57.78067 -57.7807 57.78067l-278.73785 0l0 0c-31.911388 0 -57.78068 -25.869293 -57.78068 -57.78067z" fill-rule="evenodd"/><path fill="#1c4587" d="m191.30132 38.31239c9.196899 0 15.687134 0.6014862 19.470657 1.8044548c3.7835388 1.1835709 6.6939545 3.395485 8.731247 6.635742c2.0372925 3.2208595 3.0559235 6.955887 3.0559235 11.20509c0 4.4820366 -1.0962524 8.207363 -3.2887573 11.175983c-2.173111 2.9686203 -5.413376 5.0932236 -9.720779 6.373802c-3.2596588 0.9895401 -8.643921 1.484314 -16.152786 1.484314l-27.678024 0l0 -38.679386zm4.0163727 53.784428c8.149155 0 14.387131 0.71790314 18.713959 2.1537018c4.3462067 1.4164047 7.741684 3.8902588 10.186432 7.4215546c2.444748 3.5118942 3.6671295 7.6543884 3.6671295 12.42746c0 4.0745773 -0.84402466 7.6737823 -2.5320587 10.79763c-1.6880493 3.1044388 -3.841751 5.4715805 -6.4611206 7.1014175c-2.6193695 1.6298218 -5.8790283 2.793991 -9.778992 3.4924927c-2.211914 0.40745544 -6.05365 0.61117554 -11.525223 0.61117554l-31.869019 0l0 -44.005432zm-46.537506 -68.889465l0 127.99994l48.807632 0c8.149155 0 15.02742 -0.7082062 20.634827 -2.124588c5.6267853 -1.4358215 10.302856 -3.550705 14.028183 -6.3447113c3.7253265 -2.793991 6.849167 -6.761856 9.371521 -11.90358c2.5417633 -5.1611404 3.8126526 -10.739426 3.8126526 -16.734879c0 -7.450653 -2.0858002 -13.911774 -6.2573853 -19.383347c-4.152191 -5.471573 -10.099136 -9.3424225 -17.840836 -11.612549c5.995453 -2.9686203 10.477478 -6.8685684 13.446106 -11.699852c2.968628 -4.831291 4.4529266 -9.982719 4.4529266 -15.454296c0 -5.879032 -1.6783295 -11.505829 -5.0350037 -16.880394c-3.3372803 -5.393963 -7.9648285 -9.381229 -13.882675 -11.961794c-5.8984375 -2.5999699 -13.737152 -3.8999538 -23.516129 -3.8999538z" fill-rule="evenodd"/><path fill="#ff9900" d="m49.14618 174.09973l0 72.71362c0 13.335114 1.6025009 23.856323 4.8075104 31.563599c3.2050095 7.688202 8.556229 13.564056 16.053658 17.627563c7.497429 4.0634766 17.141068 6.0952454 28.930923 6.0952454c12.13324 0 21.929504 -2.3274536 29.388771 -6.982361c7.478363 -4.67395 12.648346 -10.731049 15.509964 -18.171234c2.8616028 -7.440216 4.2924194 -17.484467 4.2924194 -30.132812l0 -72.71362l-16.654602 0l0 72.62778c0 15.796112 -2.604065 26.46994 -7.8122025 32.021454c-5.208145 5.551544 -13.936066 8.327301 -26.183777 8.327301c-7.1540375 0 -13.211121 -1.4021912 -18.17125 -4.2065735c-4.9410553 -2.8043823 -8.432228 -6.791565 -10.473511 -11.961548c-2.0222015 -5.1890564 -3.03331 -13.249268 -3.03331 -24.180634l0 -72.62778z" fill-rule="evenodd"/><path fill="#999999" d="m292.45013 162.6877c-11.619293 0 -22.270325 2.7187042 -31.953094 8.156097c-9.662796 5.4169617 -17.119522 13.358429 -22.370178 23.824417c-5.2306824 10.445541 -7.8460236 22.689926 -7.8460236 36.733154c0 12.878052 2.3158722 24.928253 6.947632 36.150543c4.651718 11.222321 11.419662 19.797485 20.303848 25.725464c8.904144 5.9075623 20.453583 8.861359 34.648315 8.861359c13.715576 0 25.31491 -3.842987 34.798035 -11.528931c9.503082 -7.706421 16.08136 -18.887848 19.734863 -33.54431l-17.428986 -4.507309c-2.3957214 11.344955 -6.9775696 19.899673 -13.745514 25.664139c-6.7679443 5.7644653 -15.033234 8.646698 -24.795837 8.646698c-8.025726 0 -15.482452 -2.1156921 -22.370178 -6.347046c-6.887726 -4.2313538 -11.968689 -10.619293 -15.242859 -19.163788c-3.2542114 -8.564941 -4.881317 -18.581207 -4.881317 -30.048813c0 -8.891998 1.3775482 -17.51825 4.1326447 -25.878769c2.7550964 -8.380966 7.526596 -15.055069 14.314499 -20.022324c6.807892 -4.9672546 15.272827 -7.450882 25.394806 -7.450882c8.804321 0 16.111298 2.238327 21.92096 6.7149963c5.809662 4.476654 10.24176 11.620911 13.296326 21.43277l17.159454 -4.139374c-3.533722 -12.4487915 -9.792572 -22.107346 -18.77658 -28.975647c-8.984009 -6.8683014 -20.06427 -10.302444 -33.240814 -10.302444z" fill-rule="evenodd"/><path fill="#0c343d" d="m338.9431 1.9055119l55.342987 51.00025l0 38.51156l-97.13388 -89.51181z" fill-rule="evenodd"/><path fill="#1c4587" d="m55.342987 346.67715l-55.342987 -51.000244l0 -38.511566l97.13386 89.51181z" fill-rule="evenodd"/></g></svg>